<?xml version="1.0" encoding="utf-8"?>
<!-- Generator: Adobe Illustrator 26.0.1, SVG Export Plug-In . SVG Version: 6.00 Build 0)  -->
<svg version="1.1" id="Layer_1" xmlns="http://www.w3.org/2000/svg" xmlns:xlink="http://www.w3.org/1999/xlink" x="0px" y="0px"
	 viewBox="0 0 358.8 77.5" style="enable-background:new 0 0 358.8 77.5;" xml:space="preserve">
<style type="text/css">
	.st0{stroke:#000000;stroke-width:5;stroke-linecap:round;stroke-linejoin:round;stroke-miterlimit:10;}
</style>
<g>
	<path class="st0" d="M207.1,73.5L207,29.1l-20.5,36.7h-5.2l-20.5-36.1v43.8h-11.1V6.6h9.5l24.8,44.4l24.3-44.4h9.5l0.1,66.9H207.1z
		"/>
	<path class="st0" d="M226.7,6.6h27.3c6.7,0,12.6,1.4,17.7,4.2c5.2,2.8,9.2,6.7,12,11.8S288,33.4,288,40s-1.4,12.5-4.3,17.5
		s-6.9,9-12,11.8c-5.2,2.8-11.1,4.2-17.7,4.2h-27.3V6.6z M253.4,63c4.6,0,8.6-0.9,12.1-2.8c3.5-1.9,6.1-4.5,8-8
		c1.9-3.5,2.8-7.5,2.8-12.1s-0.9-8.6-2.8-12.1s-4.5-6.1-8-8c-3.5-1.9-7.5-2.8-12.1-2.8h-15.1V63H253.4z"/>
	<path class="st0" d="M312.1,70c-5.1-3-9.1-7.1-11.9-12.3s-4.3-11.1-4.3-17.7s1.5-12.5,4.4-17.7s6.9-9.3,12-12.3s10.8-4.4,17.1-4.4
		c5.1,0,9.8,1,14,2.9s7.8,4.7,10.7,8.3l-7.5,7.5c-4.5-5.2-10.1-7.8-16.7-7.8c-4.3,0-8.1,1-11.5,3s-6,4.8-7.9,8.4
		c-1.9,3.6-2.9,7.6-2.9,12.1c0,4.5,1,8.6,2.9,12.1s4.5,6.4,7.9,8.4c3.4,2,7.2,3,11.5,3c6.6,0,12.1-2.6,16.7-7.9l7.5,7.6
		c-2.9,3.6-6.5,6.4-10.7,8.3c-4.2,1.9-8.9,2.9-14,2.9C322.9,74.4,317.2,72.9,312.1,70z"/>
	<g>
		<ellipse transform="matrix(0.5407 -0.8412 0.8412 0.5407 6.4926 44.2166)" cx="43.7" cy="16.2" rx="14.9" ry="15.7"/>
		<ellipse transform="matrix(0.5407 -0.8412 0.8412 0.5407 -41.6649 40.7659)" cx="16.5" cy="58.5" rx="14.9" ry="15.7"/>
		<path d="M28.6,12.2c0,0-0.9,24.3-21.9,34.7l24.6,15.8c0,0,2.8-25.7,22.1-34.6L28.6,12.2z"/>
	</g>
	<g>
		<ellipse transform="matrix(0.5407 -0.8412 0.8412 0.5407 28.4599 84.4528)" cx="91.6" cy="16.2" rx="14.9" ry="15.7"/>
		<ellipse transform="matrix(0.5407 -0.8412 0.8412 0.5407 4.0742 124.5448)" cx="116.1" cy="58.5" rx="14.9" ry="15.7"/>
		<ellipse transform="matrix(0.5407 -0.8412 0.8412 0.5407 -19.6975 81.002)" cx="64.3" cy="58.5" rx="14.9" ry="15.7"/>
		<path d="M76.5,12.2c0,0-0.9,24.3-21.9,34.7l24.6,15.8c0,0,2.8-25.7,22.1-34.6L76.5,12.2z"/>
	</g>
</g>
</svg>
